<?xml version="1.0" encoding="UTF-8" standalone="no"?>
<!DOCTYPE svg PUBLIC "-//W3C//DTD SVG 1.1//EN" "http://www.w3.org/Graphics/SVG/1.1/DTD/svg11.dtd">
<svg width="100%" height="100%" viewBox="0 0 94 94" version="1.1" xmlns="http://www.w3.org/2000/svg" xmlns:xlink="http://www.w3.org/1999/xlink" xml:space="preserve" xmlns:serif="http://www.serif.com/" style="fill-rule:evenodd;clip-rule:evenodd;stroke-linejoin:round;stroke-miterlimit:2;">
    <g id="Artboard1" transform="matrix(0.22871,0,0,1,0,0)">
        <rect x="0" y="0" width="411" height="94" style="fill:none;"/>
        <g transform="matrix(4.37234,0,0,1,1.817363,0.41565)">
            <path d="M83.402,0C88.796,0 93.169,4.373 93.169,9.767L93.169,83.402C93.169,88.796 88.796,93.169 83.402,93.169L9.767,93.169C4.373,93.169 0,88.796 0,83.402L0,9.767C0,4.373 4.373,0 9.767,0L83.402,0ZM57.436,47.529L42.704,47.529C42.168,47.529 41.679,47.808 41.422,48.275L33.31,62.4C33.054,62.843 33.054,63.402 33.31,63.869L40.653,76.689C41.236,77.691 42.681,77.691 43.24,76.689L51.026,63.123L58.718,49.743C59.301,48.764 58.578,47.529 57.436,47.529ZM77.294,17.389L77.318,17.389C77.761,16.666 77.224,15.734 76.362,15.734L42.563,15.734C42.167,15.734 41.817,15.944 41.607,16.294L32.889,31.095C32.819,31.188 32.889,31.445 32.889,31.445C32.936,31.561 33.076,31.631 33.193,31.631L68.507,31.631C68.903,31.631 69.252,31.422 69.462,31.072L77.294,17.389ZM41.982,47.342L41.958,47.342L33.31,32.261C33.101,31.864 32.681,31.631 32.238,31.631L16.97,31.631C16.015,31.631 15.432,32.657 15.898,33.473L23.59,46.899C23.8,47.295 24.22,47.529 24.663,47.529L41.865,47.529L41.982,47.342Z" style="fill:rgb(82,0,182);fill-rule:nonzero;"/>
        </g>
    </g>
</svg>
