<?xml version="1.0" encoding="UTF-8" standalone="no"?>
<!DOCTYPE svg PUBLIC "-//W3C//DTD SVG 1.1//EN" "http://www.w3.org/Graphics/SVG/1.1/DTD/svg11.dtd">
<svg width="100%" height="100%" viewBox="0 0 411 94" version="1.1" xmlns="http://www.w3.org/2000/svg" xmlns:xlink="http://www.w3.org/1999/xlink" xml:space="preserve" xmlns:serif="http://www.serif.com/" style="fill-rule:evenodd;clip-rule:evenodd;stroke-linejoin:round;stroke-miterlimit:2;">
    <path d="M145.64,11.865L145.64,4.009L115.547,4.009L115.547,46.386L124.055,46.386L124.055,28.741L145.08,28.741L145.08,21.072L124.055,21.072L124.055,11.865L145.663,11.865L145.64,11.865Z" style="fill:white;fill-rule:nonzero;"/>
    <path d="M165.476,14.825C155.686,14.825 148.46,22.051 148.46,30.932C148.46,39.813 155.686,47.109 165.476,47.109C175.266,47.109 182.539,39.836 182.539,30.932C182.539,22.028 175.336,14.825 165.476,14.825ZM165.406,39.836C160.301,39.836 156.572,35.757 156.572,30.862C156.572,25.967 160.301,21.911 165.406,21.911C170.511,21.911 174.24,25.967 174.24,30.862C174.24,35.757 170.511,39.836 165.406,39.836Z" style="fill:white;fill-rule:nonzero;"/>
    <path d="M203.145,14.685C199.438,14.685 196.525,17.016 194.52,20.116L194.217,15.338L187.131,15.338L187.131,46.386L195.382,46.386L195.382,30.489C195.382,25.198 198.599,22.494 202.725,22.494C203.891,22.494 205.033,22.727 206.268,23.147L206.338,15.221C205.242,14.825 204.147,14.685 203.191,14.685L203.145,14.685Z" style="fill:white;fill-rule:nonzero;"/>
    <path d="M234.73,15.338L234.473,18.974C231.793,16.317 228.086,14.709 223.914,14.709C215.08,14.709 207.877,21.795 207.877,30.559C207.877,39.324 215.08,46.386 223.914,46.386C227.713,46.386 231,45.034 233.588,42.843L233.588,45.943C233.588,52.004 229.648,54.708 224.31,54.708C219.788,54.708 215.802,52.33 214.567,50.978L209.742,56.969C211.35,59.16 217.481,62.517 224.613,62.517C236.128,62.517 241.816,55.314 241.816,45.664L241.816,15.361L234.753,15.361L234.73,15.338ZM224.87,39.184C220.091,39.184 216.175,35.314 216.175,30.559C216.175,25.804 220.091,22.004 224.87,22.004C229.648,22.004 233.564,25.804 233.564,30.559C233.564,35.314 229.625,39.184 224.87,39.184Z" style="fill:white;fill-rule:nonzero;"/>
    <path d="M278.995,30.932C278.995,21.934 273.121,14.825 262.958,14.825C252.795,14.825 246.524,21.911 246.524,30.932C246.524,39.953 253.051,47.109 262.958,47.109C268.669,47.109 273.447,44.801 275.638,43.053L271.512,37.249C270.417,38.228 268.016,40.023 263.587,40.023C259.578,40.023 256.221,37.832 255.196,33.776L278.715,33.846C278.855,32.937 278.971,31.841 278.971,30.932L278.995,30.932ZM255.009,28.484C255.848,24.312 258.948,21.794 263.191,21.794C267.713,21.794 270.463,24.498 270.603,28.484L255.009,28.484Z" style="fill:white;fill-rule:nonzero;"/>
    <path d="M277.759,4.009L277.759,12.005L290.626,12.005L290.626,46.386L299.134,46.386L299.134,4.009L277.735,4.009L277.759,4.009Z" style="fill:white;fill-rule:nonzero;"/>
    <path d="M341.487,30.932C341.487,21.934 335.613,14.825 325.427,14.825C315.776,14.825 309.017,21.911 309.017,30.932C309.017,39.953 315.52,47.109 325.427,47.109C331.161,47.109 335.939,44.801 338.13,43.053L334.005,37.249C332.886,38.228 330.508,40.023 326.056,40.023C322.07,40.023 318.713,37.832 317.688,33.776L341.207,33.846C341.347,32.937 341.464,31.841 341.464,30.932L341.487,30.932ZM317.501,28.484C318.34,24.312 321.441,21.794 325.683,21.794C330.205,21.794 332.956,24.498 333.095,28.484L317.501,28.484Z" style="fill:white;fill-rule:nonzero;"/>
    <path d="M361.58,39.813C356.685,39.813 352.769,35.874 352.769,30.792C352.769,25.711 356.685,21.911 361.58,21.911C364.937,21.911 367.827,23.846 369.249,26.433L375.869,23.007C373.631,18.112 368.014,14.825 361.464,14.825C351.93,14.825 344.657,21.725 344.657,30.862C344.657,39.999 351.93,46.899 361.464,46.899C368.014,46.899 373.631,43.636 375.869,38.741L369.249,35.314C367.827,37.901 364.937,39.836 361.58,39.836L361.58,39.813Z" style="fill:white;fill-rule:nonzero;"/>
    <path d="M397.781,14.685C394.121,14.685 390.834,16.55 388.317,19.324L388.387,0L380.065,0L380.065,46.386L388.317,46.386L388.317,30.349C388.317,25.967 391.417,22.307 395.59,22.307C400.345,22.307 401.65,25.594 401.65,29.72L401.65,46.41L409.902,46.41L409.902,28.951C409.902,20.862 406.405,14.708 397.781,14.708L397.781,14.685Z" style="fill:white;fill-rule:nonzero;"/>
    <path d="M308.993,12.797C311.645,12.797 313.795,10.647 313.795,7.995C313.795,5.343 311.645,3.193 308.993,3.193C306.341,3.193 304.191,5.343 304.191,7.995C304.191,10.647 306.341,12.797 308.993,12.797Z" style="fill:white;fill-rule:nonzero;"/>
    <path d="M83.402,0L9.767,0C4.373,0 0,4.373 0,9.767L0,83.402C0,88.796 4.373,93.169 9.767,93.169L83.402,93.169C88.796,93.169 93.169,88.796 93.169,83.402L93.169,9.767C93.169,4.373 88.796,0 83.402,0Z" style="fill:rgb(82,0,182);fill-rule:nonzero;"/>
    <path d="M57.436,47.529C58.578,47.529 59.301,48.764 58.718,49.743L51.026,63.123L43.24,76.689C42.681,77.691 41.236,77.691 40.653,76.689L33.31,63.869C33.054,63.402 33.054,62.843 33.31,62.4L41.422,48.275C41.679,47.808 42.168,47.529 42.704,47.529L57.436,47.529Z" style="fill:white;fill-rule:nonzero;"/>
    <path d="M41.982,47.342L41.865,47.529L24.663,47.529C24.22,47.529 23.8,47.295 23.59,46.899L15.898,33.473C15.432,32.657 16.015,31.631 16.97,31.631L32.238,31.631C32.681,31.631 33.101,31.864 33.31,32.261L41.958,47.342L41.982,47.342Z" style="fill:white;fill-rule:nonzero;"/>
    <path d="M77.294,17.389L69.462,31.072C69.252,31.422 68.903,31.631 68.507,31.631L33.193,31.631C33.076,31.631 32.936,31.561 32.889,31.445C32.889,31.445 32.819,31.188 32.889,31.095L41.607,16.294C41.817,15.944 42.167,15.734 42.563,15.734L76.362,15.734C77.224,15.734 77.761,16.666 77.318,17.389L77.294,17.389Z" style="fill:white;fill-rule:nonzero;"/>
    <path d="M249.929,83.641C249.929,84.945 249.455,86.034 248.475,86.829C247.509,87.612 246.314,87.998 244.955,87.998C243.74,87.998 242.648,87.634 241.689,86.908L241.687,86.906C240.751,86.179 240.105,85.192 239.746,83.961L239.68,83.734L239.898,83.643L241.625,82.928L241.896,82.816L241.979,83.098C242.085,83.458 242.205,83.779 242.365,84.045L242.437,84.156L242.442,84.165L242.448,84.175C242.585,84.414 242.746,84.626 242.933,84.813L243.128,84.99L243.137,84.998L243.329,85.157C243.463,85.258 243.606,85.345 243.756,85.416L243.984,85.512L244,85.518C244.302,85.647 244.633,85.694 244.98,85.694C245.769,85.694 246.373,85.486 246.835,85.112C247.288,84.745 247.526,84.255 247.526,83.617C247.526,83.097 247.334,82.646 246.963,82.275C246.589,81.901 245.875,81.523 244.773,81.156L244.766,81.153C243.637,80.735 242.93,80.459 242.618,80.303L242.617,80.302C241.834,79.904 241.233,79.401 240.83,78.791C240.426,78.18 240.229,77.474 240.229,76.689C240.229,75.572 240.685,74.615 241.548,73.83L241.551,73.827C242.442,73.041 243.542,72.652 244.832,72.652C245.961,72.652 246.953,72.934 247.793,73.536L248.092,73.757C248.759,74.288 249.217,74.928 249.472,75.693L249.549,75.925L249.323,76.02L247.622,76.735L247.348,76.851L247.266,76.564C247.135,76.108 246.852,75.712 246.426,75.398C246.009,75.091 245.499,74.931 244.882,74.931C244.22,74.931 243.688,75.112 243.247,75.465L243.24,75.47C242.809,75.793 242.606,76.186 242.606,76.689C242.607,77.099 242.767,77.448 243.084,77.746C243.268,77.896 243.574,78.074 244.019,78.279C244.465,78.483 245.035,78.709 245.733,78.953L245.732,78.953C247.178,79.452 248.268,80.063 248.906,80.834C249.516,81.571 249.854,82.456 249.877,83.48L249.929,83.531L249.929,83.641Z" style="fill:white;fill-rule:nonzero;"/>
    <path d="M273.965,72.836L273.965,82.05C273.965,83.164 274.248,84.005 274.807,84.608C275.367,85.213 276.106,85.534 277.127,85.534C278.148,85.534 278.888,85.213 279.448,84.608C280.006,84.005 280.29,83.164 280.29,82.05L280.29,72.836L282.644,72.836L282.644,81.977C282.643,83.728 282.16,85.156 281.141,86.227L281.14,86.226C280.144,87.299 278.788,87.813 277.152,87.813L277.09,87.813L277.038,87.787C275.45,87.772 274.118,87.232 273.114,86.177C272.096,85.107 271.611,83.706 271.611,81.977L271.611,72.836L273.965,72.836Z" style="fill:white;fill-rule:nonzero;"/>
    <path d="M306.679,87.653L304.325,87.653L304.325,72.997L306.567,72.997L306.644,73.131L311.357,81.397L316.071,73.131L316.147,72.997L318.39,72.997L318.39,87.653L316.036,87.653L316.036,78.998L316.081,77.557L312.117,84.511L312.041,84.645L310.674,84.645L310.598,84.511L306.633,77.557L306.679,78.998L306.679,87.653Z" style="fill:white;fill-rule:nonzero;"/>
    <path d="M342.426,87.653L340.072,87.653L340.072,72.997L342.314,72.997L342.391,73.131L347.104,81.397L351.818,73.131L351.895,72.997L354.137,72.997L354.137,87.653L351.783,87.653L351.783,78.998L351.828,77.557L347.864,84.511L347.788,84.645L346.421,84.645L346.345,84.511L342.38,77.557L342.426,78.998L342.426,87.653Z" style="fill:white;fill-rule:nonzero;"/>
    <rect x="375.818" y="72.997" width="2.354" height="14.656" style="fill:white;fill-rule:nonzero;"/>
    <path d="M410.098,73.009L410.098,75.264L406.152,75.264L406.152,87.64L403.8,87.64L403.8,75.264L399.854,75.264L399.854,73.009L410.098,73.009Z" style="fill:white;fill-rule:nonzero;"/>
</svg>
